<?xml version="1.0" encoding="utf-8"?>
<svg version="1.1" id="Capa_1" xmlns="http://www.w3.org/2000/svg" xmlns:xlink="http://www.w3.org/1999/xlink" x="0px" y="0px"
	 viewBox="0 0 240 193.9" style="enable-background:new 0 0 240 193.9;" xml:space="preserve">
<style type="text/css">
	.st0{fill:#FFFFFF;}
	.st1{fill:#F5FF00;}
	.st2{fill:#171616;}
</style>
<g>
	<path class="st0" d="M236,76.2c0,64.3-52.1,116.4-116.4,116.4S3.2,140.5,3.2,76.2c0-74-11.6-74.3,119.4-74.3
		C246.9,1.9,236,2.6,236,76.2z"/>
	<circle class="st1" cx="120" cy="73.9" r="67.7"/>
	<g>
		<g>
			<g>
				<path class="st2" d="M121.1,100.4c-0.9,0-1.6-0.1-1.8-0.1l-0.6,0c-1.3-0.1-3.2-0.3-4.5-0.7c-2-0.7-5.5-3.9-6.2-4.5
					c-2.2-2-2.1-5.3-2-5.9V74.7c0-0.9,0.7-1.7,1.7-1.7c0.9,0,1.7,0.7,1.7,1.7v14.3c0,0,0,0.1,0,0.1c0,0.6,0.1,2.4,1,3.3
					c2,1.9,4.2,3.5,5,3.9c0.9,0.3,2.6,0.5,3.6,0.6l0.6,0.1c1.5,0.1,3,0,3.5-0.1c0.1,0,0.2-0.1,0.4-0.1c0.7-0.3,2.4-0.9,2.8-1.6
					c0.1-0.3,0.3-0.7,0.5-1.1c1.1-2.6,1.7-3.9,2.5-4.5c0.4-0.5,1-2.3,0.9-2.9c-0.3-0.9-0.3-1.4-0.1-2.1c0-0.2,0.1-0.3,0.1-0.8
					c0.1-1.5,0-6,0-6c0-0.9,0.7-1.7,1.6-1.7c0,0,0,0,0,0c0.9,0,1.6,0.7,1.7,1.6c0,0.2,0.1,4.6,0,6.3c-0.1,0.7-0.2,1.2-0.2,1.5
					c0,0.1,0,0.2,0.1,0.3c0.5,1.9-0.8,5.4-2.1,6.4c-0.4,0.5-1.1,2.2-1.5,3.2c-0.2,0.4-0.3,0.8-0.5,1.2c-0.9,2.1-3.4,3-4.7,3.5
					c-0.1,0-0.2,0.1-0.3,0.1C123.4,100.3,122.1,100.4,121.1,100.4z M131.1,92.1C131.1,92.1,131.1,92.1,131.1,92.1
					C131.1,92.1,131.1,92.1,131.1,92.1z M131.1,92.1L131.1,92.1L131.1,92.1z M129.1,89.4L129.1,89.4L129.1,89.4z"/>
			</g>
			<g>
				<path class="st2" d="M72.2,85.3c-0.5,0-0.9-0.1-1.2-0.2c-0.8-0.4-1.4-1.1-1.5-2c-0.2-1.1,0.3-2.4,1.4-3.4c1-0.9,1.9-0.9,2.5-0.8
					c1,0.2,1.6,0.9,1.9,1.6c0,0.1,0.1,0.1,0.1,0.2c0.7,2.1-0.3,3.3-0.8,3.7C73.9,85,73,85.3,72.2,85.3z"/>
			</g>
			<g>
				<path class="st2" d="M170.6,85.4c-0.6,0-1.4-0.2-2.2-0.9c-0.8-0.7-1.6-2.1-1.5-3.6c0.1-1.1,0.7-2,1.6-2.5
					c0.9-0.5,1.8-0.7,2.7-0.5c0.4,0.1,0.6,0.3,0.9,0.4c1.4,0.4,1.9,1.3,2.1,1.8c0.4,1.1,0.1,2.5-0.8,3.7c-0.9,1.1-1.8,1.4-2.4,1.5
					C170.8,85.4,170.7,85.4,170.6,85.4z"/>
			</g>
			<g>
				<path class="st2" d="M80,120.1c-0.4,0-0.8-0.1-1.1-0.4c-0.7-0.6-0.8-1.6-0.2-2.3c8.5-10.1,9.6-9.7,10.7-9.4
					c1.5,0.5,1.6,2,1.2,3.8c0.5-0.6,1-1.1,1.5-1.7c5.7-6.5,7-7.8,8.2-7.9c0.8-0.1,1.5,0.2,1.9,0.7c0.1,0.2,0.2,0.3,0.3,0.5
					c0.2-0.3,0.4-0.6,0.6-0.9c1.8-2.4,3.1-3.7,5-3.9c0.6-0.1,1.1,0.1,1.6,0.5c0.1,0.1,0.2,0.2,0.3,0.3c0.4-0.4,0.9-0.7,1.5-0.8
					c0.5,0,1.1,0.1,1.5,0.4c0.8-0.3,1.5-0.1,2.1,0.4c0.4,0.3,1.3,1.2,0.4,5c-0.2,0.8-0.9,1.3-1.6,1.3c0,0,0,0,0,0
					c-0.1,0.3-0.3,0.5-0.6,0.7c-0.4,0.3-0.9,0.5-1.5,0.4c-0.4,0-0.8-0.2-1.1-0.5c-0.5,0.9-1.2,1.5-2.4,1.3c-1.9-0.4-1.8-2.4-1.5-4.4
					c-0.3,0.3-0.6,0.7-1,1.2c-0.6,0.8-1.4,2-2.1,3.1c-2.2,3.4-3,4.6-4.4,4.4c-0.7-0.1-1.3-0.6-1.5-1.3c-0.2-0.7-0.1-1.4,0.3-2.6
					c-1.2,1.3-2.5,2.8-3.5,4c-5.2,6-6,6.9-7.5,6.3c-0.7-0.3-1.1-1-1.1-1.8c0.1-0.9,0.4-2.1,0.8-3.3c-1.6,1.7-3.7,3.9-5.4,6
					C81,119.9,80.5,120.1,80,120.1z M101.1,105.5"/>
			</g>
			<g>
				<path class="st2" d="M156.5,117.5c-1.4,0-3.2-1.5-7.4-5.5c0,0.5,0,0.9-0.1,1.3c-0.2,0.6-0.7,1.1-1.3,1.2
					c-1.4,0.4-2.9-0.7-8.7-6.2c-0.1,0.3-0.2,0.5-0.3,0.7c-0.3,0.4-0.7,0.7-1.3,0.8c-1,0.1-1.9-0.3-5.8-3.6c-0.1,0.3-0.3,0.7-0.6,1
					c-0.4,0.4-1.1,0.7-1.7,0.6c-0.5-0.1-2-0.2-5.1-4.9c-0.5-0.8-0.3-1.8,0.5-2.3c0.8-0.5,1.8-0.3,2.3,0.5c0.3,0.4,0.6,0.9,0.9,1.3
					c0-0.5,0.2-0.9,0.7-1.3c0.5-0.3,1.3-0.5,2.2,0.1c0.3,0.2,0.7,0.6,1.5,1.3c0.6,0.6,1.8,1.6,2.9,2.5c0-0.8,0.1-1.4,0.8-1.9
					c0.2-0.2,1.1-0.6,2.1,0.1c0.4,0.3,1,0.8,2.6,2.4c0.9,0.9,2.4,2.3,3.8,3.6c-0.7-1.6-1-2.8,0-3.6c0.5-0.4,1.3-0.6,2.2-0.1
					c0.5,0.3,1.4,1.2,3.2,3c1.7,1.7,5.3,5.1,6.5,5.8c0.6,0,1.3,0.4,1.5,1c0.4,0.8,0,1.8-0.8,2.2
					C157.1,117.4,156.8,117.5,156.5,117.5z M145.8,112.4L145.8,112.4L145.8,112.4z"/>
			</g>
			<g>
				<path class="st2" d="M106.3,119c-0.8,0-1.5-0.6-1.6-1.4c-0.2-0.9,0.4-1.8,1.3-1.9c0.3-0.1,3-0.6,3.7-0.6c0.4-0.1,0.8,0,1.1,0
					c0.1,0,0.3,0,0.4,0c0.9-0.3,3.8-0.9,4.3-1c0.7-0.1,6.1-0.3,7.4-0.3c1.4,0,11.6,0.1,12,0.2c0.9,0,1.6,0.8,1.6,1.7
					c0,0.9-0.8,1.7-1.7,1.6c-0.1,0-10.6-0.2-11.9-0.2c-1.4,0-6.4,0.2-6.9,0.3c-0.5,0.1-3.1,0.7-3.6,0.8c-0.7,0.3-1.4,0.2-1.9,0.2
					c-0.2,0-0.4,0-0.4,0c-0.4,0.1-2.4,0.4-3.5,0.6C106.5,119,106.4,119,106.3,119z M111.2,115.1L111.2,115.1L111.2,115.1z"/>
			</g>
		</g>
		<path class="st2" d="M240,0H0.1v67.9h0.1c-0.1,2-0.2,4-0.2,6c0,32,12.5,62.2,35.1,84.8c22.7,22.7,52.8,35.1,84.8,35.1
			s62.2-12.5,84.8-35.1c22.7-22.7,35.1-52.8,35.1-84.8c0-2.1-0.1-4.1-0.2-6h0.2V0z M184.1,73.9c0,35.4-28.8,64.1-64.1,64.1
			s-64.1-28.8-64.1-64.1c0-2,0.1-4,0.3-6h127.7C184,69.9,184.1,71.9,184.1,73.9z M232.7,73.9c0,62.2-50.6,112.8-112.8,112.8
			S7.2,136.1,7.2,73.9c0-2.1,0.1-4.1,0.2-6h41.5c-0.2,2-0.3,4-0.3,6c0,39.3,32,71.3,71.3,71.3s71.3-32,71.3-71.3c0-2-0.1-4-0.3-6
			h41.6C232.7,69.9,232.7,71.9,232.7,73.9z"/>
		<path class="st2" d="M26.8,98.2c1.5-0.3,9.9-1.9,11.4-2.1c0.3-0.1,0.7,0,1,0c0.8,0.1,1.5,0,2.2-0.4c1.2-0.3,2.6-0.3,3.7-0.5
			c0.3,0.1,0.6,0.5,0.7,0.8c0.3,1.1,0.8,3.5,1,4.6c0.1,1-0.5,2.8-1.4,2.6c-0.4-0.1-0.7-0.1-1.1,0c-4.4,0.8-12.4,2.3-16.8,3.2
			c-0.2,0-0.4,0.1-0.6,0.1c-0.7,0.1-1.3-1.2-1.5-2c-0.2-1.1-0.7-3.4-0.9-4.4c-0.2-1-0.5-1.1-1.2-0.8c-0.8,0.3-1.7,0.5-2.5,0.7
			c-0.5,0.1-0.8-0.2-0.9-0.8c-0.2-1.1-0.1-0.9-0.3-2c-0.2-0.8-0.4-1.1-1.1-1c-0.8,0.1-1.6,0.3-2.4,0.5c-0.5,0.1-0.8-0.1-1.1-0.6
			c-0.7-1.1-0.9-2.4-1-3.7c-0.2-1.3,0.2-1.8,1.3-2c0.7-0.1,1.3-0.2,2-0.4c0.8-0.2,1.2-1,1-2c-0.1-0.6-0.2-1.2-0.3-1.8
			c-0.2-1,0-1.4,0.9-1.5c0.7-0.1,1.4-0.3,2-0.4c0.8-0.2,1.1-0.6,0.9-1.6c-0.2-1.2-0.7-3.7-0.9-4.9c-0.2-1.1,0.3-0.8,1.2-0.9
			c0.6-0.1,1.1-0.3,1.7-0.4c4-0.7,11.6-2.2,15.6-2.9c0.6-0.1,1.3,0.1,2,0.2c0.2,0,0.5,0.3,0.6,0.6c0.2,0.8,0.7,2.9,0.7,3.7
			c0,0.8,0.2,1.5-0.1,2.2c-0.1,0.4-1,0.3-1.3,0.4c-1.2,0.3-2.5,0.5-3.7,0.7c-0.2,0-0.3,0.1-0.5,0c-1.3,0.1-8.8,1.7-9.7,1.9
			c-2.3,0.4-1.2,0.2-3.5,0.7c-0.2,0-0.3,0.1-0.5,0.1c-0.6,0.2-0.7,0.4-0.6,1.2c0.2,1,0.4,2,0.6,2.9c0.2,1,0,1.3-0.8,1.5
			c-0.8,0.2-1.6,0.3-2.4,0.5c-0.7,0.1-0.8,0.3-0.6,1.1c0.2,0.9,0.3,1.8,0.5,2.8c0.2,0.9,0.8,1.3,1.5,0.9c0.5-0.2,1-0.4,1.5-0.5
			c0.6-0.1,1.1,0.3,1.2,1.1c0.2,0.9,0.1,0.7,0.2,1.6c0.2,1.2,0.6,1.5,1.5,1.3C27.5,98.1,25.4,98.5,26.8,98.2
			C26.8,98.2,26.8,98.2,26.8,98.2z"/>
		<path class="st2" d="M49.6,115.1c0.8-0.5,1.6-1,2.5-1.5c1.2-0.7,1.3-0.7,2.3,0.8c2.2,3.7,3.7,5.8,5.9,9.5c0.6,1,0.6,1.3-0.2,1.7
			c-0.8,0.5-1.5,0.9-2.3,1.4c-0.6,0.4-0.7,0.7-0.2,1.5c0.5,0.9,1.9,3.5,2.4,4.3c0.4,0.7,0.4,1.1-0.2,1.4c-5.6,3.4-14.3,8.6-19.9,12
			c-0.7,0.4-1.3,0.2-1.8-0.6c-0.4-0.7-1.7-3.2-2.1-3.9c-0.4-0.8-0.4-1.3,0.2-1.8c0.2-0.2,0.4-0.3,0.6-0.4c2.8-1.7,2.6-1.5,5.4-3.2
			c0.7-0.5,0.8-0.6,0.2-1.5c-2.3-3.9-3.8-6.1-6.2-9.9c-0.5-0.9-0.8-1-1.5-0.6c-1.8,1.1-0.9-0.3-2.5,1.1c-0.4,0.3-0.7,0.7-1.1,1
			c-0.1,0.1-0.2,0.2-0.3,0.3c-0.8,0.5-1.5,0.9-2.3,1.4c-0.6,0.3-1.1,0.1-1.5-0.6c-0.6-1-2.3-3.3-2.9-4.3c-0.3-0.6-0.3-0.9,0.1-1.2
			c0.2-0.1,0.3-0.2,0.5-0.3c5.4-3.2,13.9-8.3,19.3-11.6c0.3-0.2,0.6-0.4,0.8-0.6c0.4-0.3,0.8-0.3,1.2,0.1c0.4,0.4,0.8,0.8,1,1.2
			C47.4,111.7,48.9,114,49.6,115.1z M49.2,115.3c-0.3,0.2-0.5,0.4-0.8,0.5c-0.3,0.1-0.6,0.1-0.9,0.2c-0.2,0.1-0.3,0.3-0.5,0.4
			c-0.2,0.2-6.5,4.2-6.8,4.4c-0.7,0.5-0.6,1,0.1,1.7c0.4,0.4,0.8,0.9,1.1,1.4c1.9,3.2,3,4.6,4.9,7.8c0.2,0.3,0.3,0.5,0.5,0.7
			c0.3,0.4,0.7,0.6,1.1,0.3c0.5-0.3,7.1-4.3,7.5-4.5c0.8-0.5,0.8-0.6,0.2-1.7c-0.4-0.8-0.9-1.5-1.3-2.3c-0.4-0.8,0.1,0.1-0.3-0.7
			c-0.5-1-1.2-1.8-1.4-2.9c0-0.2-0.3-0.4-0.4-0.6c-0.4-0.5-0.8-0.9-1.1-1.4c-0.6-0.9-1.1-1.8-1.6-2.7
			C49.5,115.7,49.4,115.5,49.2,115.3z"/>
		<path class="st2" d="M163.2,137.9c2.9-1.8,3.3-2,5.6-3.6c1-0.7,2.5-0.6,2.9,0.3c0.2,0.5,0.5,0.9,0.9,1.3c0.2,0.3,0.6,0.4,1,0.6
			c0.6,0.2,1,0,1.6-0.5c0.5-0.5,1.1-0.8,1.7-1.1c0.2-0.1,1.8-0.9,2-0.8c0.2,0.1,0.4,0.4,0.5,0.6c1.6,2.5,5,8,6.6,10.4
			c0.2,0.3,0.6,0.6,0.8,0.9c0.2,0.2,0.4,0.4,0.6,0.6c0.9,1.3,1.7,2.6,2.5,4c0.6,0.9-1,2.7-2.1,3.4c-0.8,0.5-1.7,1.1-2.6,1.6
			c-0.4,0.2-0.5,0.5-0.3,0.8c0.2,0.4,0.5,0.8,0.7,1.2c0.6,1,0.3,1.9-0.9,2.7c-1.1,0.7-2.2,1.3-3.2,1.9c-0.6,0.4-1.1,0.8-1.7,1.2
			c-2.6,1.7-3.3,2.1-5.9,3.7c-0.3,0.2-2.6,1.7-2.9,2c-0.8,0.8-1.8,1.3-2.9,1.3c-0.5,0-0.8-0.3-0.9-0.8c-0.1-0.5-0.3-1-0.6-1.5
			c-2.6-4.2-3.4-5.4-6.1-9.6c-0.3-0.4-0.7-0.8-1.1-1.1c-0.2-0.2-4.2-6.4-4.3-6.6c-0.8-1.3-1.6-2.5-2.4-3.8c-0.2-0.3-0.3-0.7-0.3-1.1
			c-0.1-0.4,0.2-0.8,0.6-1.1C155.6,142.2,160.9,139.7,163.2,137.9z M181,150.4c-1.1-1.8-6.1-9.7-7.3-11.5c-0.6-0.9-1-0.9-2.1-0.2
			c-1.9,1.2-3.7,2.3-5.5,3.5c-0.2,0.1-0.5,0.3-0.6,0.5c-0.5,0.7,0.7-0.1-0.1,0.4c-0.8,0.5-1.5,1-2.3,1.5c-0.9,0.6-1,0.8-0.5,1.6
			c2.6,4.2,7.2,11.3,9.8,15.5c0.5,0.7,0.7,0.8,1.6,0.2c2.8-1.8,3.8-2.4,6.6-4.2c0.3-0.2,0.5-0.4,0.7-0.6c0.4-0.3,0.8-0.7,1.3-1
			c0.6-0.4,0.9-0.8,0.6-1.4c-0.1-0.3-0.2-0.6-0.4-0.9c-0.2-0.4-0.2-0.9-0.5-1.3C181.3,150.8,182.1,152.1,181,150.4z"/>
		<path class="st2" d="M185.8,122.7c-0.8-0.5-1.6-1.1-2.4-1.6c-1.2-0.8-1.2-0.9-0.2-2.4c2.5-3.6,3.8-5.5,6.3-9.1
			c0.7-1,0.9-1.1,1.7-0.5c0.7,0.5,1.4,1,2.2,1.5c0.6,0.4,0.9,0.3,1.4-0.5c0.6-0.8,2.3-3.4,2.9-4.2c0.5-0.7,0.8-0.8,1.4-0.4
			c5.4,3.7,13.8,9.5,19.2,13.2c0.7,0.5,0.7,1,0.2,1.9c-0.5,0.7-2.1,3.1-2.6,3.8c-0.5,0.7-1,0.9-1.7,0.6c-0.2-0.1-0.4-0.2-0.6-0.4
			c-2.7-1.9-2.5-1.7-5.2-3.6c-0.7-0.5-0.9-0.4-1.5,0.5c-2.6,3.7-4,5.8-6.5,9.5c-0.6,0.8-0.6,1.1,0.1,1.6c1.7,1.2,0.1,0.9,2,1.9
			c0.4,0.2,0.9,0.4,1.4,0.6c0.1,0.1,0.3,0.1,0.4,0.2c0.7,0.5,1.5,1,2.2,1.5c0.5,0.4,0.6,1,0.1,1.6c-0.7,1-2.5,3.7-3.2,4.7
			c-0.4,0.5-0.7,0.6-1.2,0.4c-0.2-0.1-0.3-0.2-0.5-0.3c-5.2-3.6-13.3-9.2-18.5-12.7c-0.3-0.2-0.6-0.4-0.9-0.5
			c-0.5-0.2-0.6-0.5-0.4-1.1c0.2-0.5,1.6-2.7,1.9-3.2C184.3,124.6,185,123.7,185.8,122.7z M186.1,122.9c0.3,0.2,0.6,0.3,0.8,0.5
			c0.2,0.2,0.3,0.5,0.5,0.7c0.1,0.1,0.4,0.2,0.6,0.2c0.3,0.1,6.5,4.2,6.8,4.4c0.8,0.4,1.2,0.2,1.6-0.8c0.2-0.5,0.5-1.1,0.8-1.6
			c2.1-3.1,3-4.4,5.1-7.5c0.2-0.2,0.3-0.5,0.5-0.8c0.3-0.5,0.2-0.8-0.2-1.1c-0.5-0.3-6.8-4.7-7.3-5c-0.8-0.6-0.9-0.5-1.6,0.5
			c-0.5,0.7-1,1.5-1.6,2.1c-0.6,0.7,0-0.4-0.6,0.3c-0.7,0.8-1.1,1.8-2,2.5c-0.2,0.1-0.3,0.4-0.4,0.6c-0.3,0.5-0.5,1.1-0.8,1.6
			c-0.6,0.9-1.2,1.8-1.8,2.6C186.3,122.5,186.2,122.7,186.1,122.9z"/>
		<path class="st2" d="M196,86.5c0.2-3.4,0.7-4.1,0.8-6.9c0.1-1.2,1-2.3,2-2.1c0.5,0.1,1.1,0.2,1.6,0.1c0.4,0,0.7-0.2,1-0.4
			c0.5-0.3,0.5-2.9,0.4-3.6c-0.1-0.7,0-1.4,0.1-2.1c0-0.2,0.3-0.5,0.5-0.6c0.2-0.1,0.5-0.1,0.8,0c2.9,0.2,13,1,15.9,1.1
			c0.4,0,0.8-0.1,1.2-0.1c0.3,0-3-0.4-2.7-0.4c1.6,0.1,3.1,0.2,4.7,0.3c1.1,0.1,1.6,0.9,1.5,2.2c-0.1,1,0,4.1-0.1,5
			c0,0.5,0.1,0.7,0.5,0.7c0.5,0,0.9,0.1,1.4,0.1c1.1,0.1,1.7,0.9,1.6,2.3c-0.1,1.2-0.3,2.5-0.4,3.7c-0.1,0.7,0,1.4-0.1,2
			c-0.2,3.1-0.6,4.1-0.8,7.2c0,0.4,0,0.8,0.1,1.2c0.2,1.2-0.1,4.3-0.8,5.2c-0.3,0.4-0.7,0.5-1.1,0.3c-0.5-0.2-1-0.4-1.5-0.4
			c-5-0.4-6.4-0.5-11.3-0.8c-0.5,0-8.2-0.4-8.7-0.3c-0.3,0-0.5,0.1-0.8,0.1c-1.5-0.1-3-0.2-4.5-0.3c-0.4,0-0.7-0.2-1.1-0.4
			c-0.4-0.2-0.5-0.6-0.6-1.1C195,95,196.1,89.5,196,86.5z M217,79.5c-2.1-0.2-11.4-0.8-13.6-1c-1-0.1-1.3,0.3-1.4,1.6
			c-0.2,2.2-0.3,4.4-0.5,6.5c0,0.3,0,0.6,0,0.8c0.3,0.8,0-0.4,0,0.5c-0.1,0.9-0.1,1.8-0.2,2.7c-0.1,1.1,0.1,1.3,1,1.4
			c4.9,0.4,13.4,1,18.3,1.3c0.9,0.1,1-0.1,1.1-1.2c0.2-3.3,0.7-4.6,0.9-8c0-0.3,0-0.6,0-0.9c0-0.5-0.1-1.1,0-1.6
			c0.1-0.7-0.2-1.2-0.7-1.3c-0.3-0.1-0.6-0.2-0.9-0.3c-0.4-0.1-0.9-0.4-1.3-0.4C217.5,79.5,219,79.6,217,79.5z"/>
		<path class="st2" d="M91.4,152.5c-0.1,0.3-0.1,0.5-0.2,0.7c-0.5,0.8-5,7.6-5.6,8.4c-0.3,0.5-0.6,0.4-1.3,0.2
			c-1.3-0.4-3.5-1.9-4.7-2.7c-0.4-0.3-0.7-0.2-0.9,0.1c-0.4,0.5-0.7,1.1-1.1,1.6c-0.3,0.5-0.1,1,0.5,1.5c0.9,0.7,2.8,2.1,3.7,2.9
			c0.4,0.3,0.4,0.6,0.2,1c-0.4,0.7-0.9,1.3-1.3,2c-1.6,2.4-1.2,1.7-2.7,4.1c-0.6,1-1.4,1-2.8,0.4c-0.7-0.3-2.4-1.6-3.1-2
			c-0.7-0.5-0.8-1-0.5-1.6c1.9-3,1.9-2.9,3.9-5.9c0-0.1,0.1-0.1,0.1-0.2c0.7-0.8,0.6-0.9-0.4-1.6c-1.8-1.2-3.5-2.3-5.3-3.5
			c-0.2-0.2,0.5,0.5,0.4,0.3c-0.8-1.2-2.1-1.8-3.3-2.6c-0.4-0.3-0.9-0.6-1.3-0.9c-0.7-0.4-0.9-0.4-1.3,0.1c-0.9,1.4,0.1-0.2-0.8,1.2
			c-1,1.5-2,3-3,4.5c-0.5,0.7-0.7,0.8-1.7,0.2c-1.2-0.8-3.4-2.4-4.6-3.1c-0.5-0.3-0.6-0.7-0.3-1.1c0.1-0.2,0.2-0.3,0.3-0.5
			c4.2-6.4,10.4-15.8,14.6-22.2c0.7-1,1.1-1,2.3-0.2c6.5,4.3,11.8,7.8,16,10.6c0.2,0.1,0.3,0.2,0.5,0.3c0.4,0.3,0.4,0.5,0.2,0.8
			c-0.5,0.8-1.1,1.5-1.6,2.3c-0.4,0.6-0.3,0.7,0.3,1.4c0.8,0.8,2.7,2.1,3.6,2.7C90.6,152.1,91,152.3,91.4,152.5z M72.7,153.6
			c1.8,1.2,3.6,2.4,5.5,3.6c0.7,0.4,4.9-5.6,5.3-6.1c0.2-0.3,0.7-1.1,0.9-1.4c0.5-0.7,0.6-1.3-0.3-1.9c-2.9-1.9-4.8-3-7.7-5
			c-0.6-0.4-1.2-0.8-1.9-1.2c-0.8-0.5-1.3-0.2-1.7,0.4c-0.2,0.3-0.8,1.2-1,1.5c-0.4,0.6-4.2,6.8-3.5,7.3
			C70.2,152.1,70.9,152.4,72.7,153.6z"/>
		<path class="st2" d="M133.1,171.2c0,0.3,0,0.6,0,0.8c0.4,2.3,0.2,1,0.6,3.2c0.1,0.7,0.4,0.9,1.3,0.7c4.3-0.8,6.2-1.2,10.6-2
			c0.3-0.1,0.6-0.1,0.8-0.2c1.5-0.9,3.3-0.8,4.9-1.2c0.5-0.1,0.8,0.1,0.9,0.5c0.2,1.1,0.4,2.2,0.6,3.3c0.1,0.5-0.2,0.7-0.8,0.8
			c-0.8,0.1-1.6,0.3-2.4,0.4c-4.7,0.9-11.9,2.2-21.5,4c-1.2,0.2-1.9-0.1-2.1-1.1c-0.1-0.5-0.2-1-0.3-1.5c-1.3-7.1-3.3-17.8-4.7-24.9
			c-0.2-1.3-0.2-1.4,1.5-1.7c1.1-0.2,4.7-0.7,5.6-1.3c0.2-0.1,0.5-0.1,0.7-0.2c6.2-1.2,9.8-1.9,16-3c0.8-0.1,1.6-0.1,2.4,0
			c0.2,0,0.6,0.3,0.6,0.5c0.2,0.9,0.4,1.8,0.5,2.6c0.1,0.4-0.2,0.7-0.7,0.8c-0.2,0.1-0.5,0.1-0.7,0.2c-5.9,1.1-9.4,1.8-15.3,2.9
			c-1.5,0.3-1.8,0.6-1.5,1.8c0.1,0.6,1.5,8.3,1.7,9c0.1,0.6,0.4,0.7,1.1,0.6c2.9-0.5,3.3-0.6,6.2-1.2c0.2,0,0.4-0.1,0.5-0.2
			c1.4-0.8,2.9-0.9,4.5-1.1c1-0.2,1.7,0.2,1.9,1c0.3,1,0.4,2.1,0.6,3.1c0.1,0.4-0.2,0.7-0.7,0.8c-0.6,0.1-1.3,0.3-1.9,0.4
			c-4.3,0.8-6,1.1-10.3,1.9C133.5,171,133.4,171.1,133.1,171.2z"/>
		<g>
			<path class="st2" d="M111,151c-1.3-0.2-4.6-0.9-7.3-1.4c-1-0.2-2.1,0.5-2.2,1.2c-0.1,0.5-0.2,1.5-0.3,2.4
				c-0.1,0.7,0.6,1.4,1.6,1.6l0.3,0.1c0,0,6.8,1.2,7.1,1.3C112.9,156.7,113.5,151.5,111,151z"/>
			<path class="st2" d="M98.3,172.5c-0.2,1.1-2.4,6.3-0.9,6.5c0.6,0.1,1.4,0.2,2.5,0.4c1.1,0.2,4.5,0.8,5.6,1c3.1,0.5,3-4.9,3.2-5.9
				c0.6-3.4,1.8-10.4,2.4-13.8c0.1-0.7-0.5-1.4-1.5-1.6l-6.6-1.4c-1.1-0.2-2.1,0.2-2.2,1C100.1,162.2,98.9,169.1,98.3,172.5z"/>
		</g>
	</g>
	<path class="st1" d="M23.6,46.3c0,2.3,0,4.6,0,7c0,1.8-0.5,2.2-2.6,2.2c-1.6,0-3.2,0-4.9,0c-1.4,0-2.1-0.5-2.1-1.7
		c0-2.3-0.4-4.6,0.1-6.8c1.1-5.2,0.4-6.4,0.5-11.6c0.2-4.2,0-16.3,0-20.5c0-1.4,0.2-1.6,1.8-1.6c3.4,0,6.9-0.1,10.3-0.1
		c0.3,0,0.7,0.1,1,0.1c1.2,0.1,2.4,0.4,3.5,0.4c4,0.1,7.9,0,11.9,0c1.7,0,1.9,0.3,1.9,1.7c0,0.6,0,1.3,0,1.9c0,0.8,0.4,1.1,1.3,1.1
		c1.2,0,2.4,0,3.5,0c0.5,0,1,0.1,1.5,0.2c1.5,0.4,1.8,0.8,1.8,2.1c0,1.8,0,11.4,0,13.2c0,1.2-0.4,1.6-1.8,1.5c-1,0-2-0.2-2.9-0.3
		c-1.3-0.1-2.7-0.5-3.8,0.5c-0.4,0.4-0.7,1-0.8,1.5c-0.1,0.8,0,1.7,0,2.6c0,1.2-0.4,1.6-1.9,1.6c-3.9,0-7.9,0-11.8,0
		c-1.7,0-3.4,0-5.1,0c-1.4,0-1.6,0.2-1.6,1.4C23.6,45.3,23.7,43.8,23.6,46.3C23.7,46.3,23.6,46.3,23.6,46.3z M34.5,20.3
		c-3.1,0-6.2,0-9.3,0c-1.1,0-1.5,0.3-1.5,1.3c0,1.1,0,10.1,0,11.2c0,1.3,0.3,1.5,1.8,1.5c3.9,0,7.9,0,11.8,0c2,0,4.1,0,6.1,0
		c1.3,0,1.9-0.5,1.9-1.6c0-1,0-9.8,0-10.8c0-1.3-0.2-1.5-1.7-1.5C40.5,20.3,37.5,20.3,34.5,20.3z"/>
	<path class="st1" d="M81.8,48.9c0.4,0.1,0.9,0.3,1.4,0.3c5,0,10.1,0,15.1,0c0.9,0,1.9-0.4,2.7-0.7c0.3-0.1,0.5-0.8,0.5-1.2
		c0-2.7,0-1.4,0-4.1c0-0.7,0.3-1.3,0.4-2c0.1-0.4,0.2-0.8,0.2-1.3c0-5.4,0-18.6,0-24c0-1.2,0.4-2,1.7-2.7c2.2-1.2,4.3-1.1,6.5-0.3
		c1,0.4,1.4,1,1.4,1.9c0,2.2,0,4.4,0,6.6c0,0.6,0.2,9,0.3,9.6c0.1,0.4,0.2,0.8,0.2,1.2c0,6,0,8,0,14c0,0.9-0.3,2-0.8,2.8
		c-0.6,1.1-1.9,1.3-3.2,1.4c-0.8,0.1-1.5,0.1-2.2,0.3c-0.8,0.2-1,0.7-1.1,1.4c-0.2,1-0.4,2.1-0.7,3.1c-0.2,0.8-1,1-1.9,1
		c-2.6,0-5.2,0-7.8,0c-2.8,0-5.5,0-8.3,0c-0.9,0-1.7-0.4-2.4,0.1c-1.3-0.1-1.3-0.1-2.3-0.1c-0.6-0.4-1.2-0.4-1.7-0.9
		c-1-1.2-0.7-2.5-0.4-3.8c0.4-1.4,0.2-1.7-1.4-1.7c-0.8,0-1.6,0-2.5,0c-1.8,0-3.2-1.1-3.2-2.6c-0.1-3.9-0.5-4,0.1-7.8
		c0.6-3.5,0.3-14.8,0.5-18.3c0.1-1.2,0.4-2.3,0.5-3.5c0.1-0.8-0.1-1.6,0.1-2.3c0.1-0.6,0.4-1.1,0.8-1.6c0.5-0.6,1.1-0.6,2-0.4
		c0.7,0.2,1.5,0.2,2.1,0c1.7-0.5,3.9,0.7,3.9,2.3c0,3.9,0.5,15.7-0.1,19.6c-0.8,5.3-0.2,6.7-0.4,12C81.7,47.7,81.8,48.2,81.8,48.9z"
		/>
	<path class="st1" d="M169.5,19.4c0.1,0.4,0.3,0.7,0.3,1.1c0,1.4,0,10.7,0,12.1c0,0.9-0.4,1-1.3,1.3c-1.9,0.5-3.8,0.6-5.7,0.6
		c-0.6,0-1,0.3-1,0.8c0,1,0,1.9,0,2.9c0.1,0.9,0.6,1.3,1.7,1.4c1.6,0.1,3.2,0.3,4.8,0.5c0.7,0.1,0.9,0.5,0.9,1c0,1.2,0,2.3,0,3.5
		c0,4.2-0.1,4.4,0,8.6c0,1.7-0.9,2.4-3,2.7c-1.1,0.2-2.3,0.1-3.4,0c-1.2,0-1.8-0.6-1.8-1.6c0-5.2,0-6.5,0-11.6c0-0.1,0-0.2,0-0.3
		c0.2-1.5,0.1-1.6-1.7-1.6c-2.9,0-5.8,0-8.7,0c-0.4,0-0.9,0-1.2-0.1c-1.9-0.7-3.8-0.4-5.7-0.5c-0.7,0-1.5,0-2.2,0
		c-1.1,0-1.4,0.2-1.4,1.2c0,2.4,0,1,0,3.4c0,2.7,0,5.3,0,8c0,1.3-0.3,1.5-1.8,1.5c-1.9,0-3.9,0-5.8,0c-0.9,0-1.2-0.4-1.2-1.1
		c0-0.3,0-0.6,0-0.8c0-11.2,0-26.4,0-37.6c0-1.7,0.5-2.2,2.5-2.2c8.9,0,17.7,0,26.6,0c0.3,0,0.5,0,0.8,0c0.6,0,0.9,0.3,0.9,0.8
		c-0.1,1.4-0.1,2.7-0.1,4.1c0,1.1,0.2,1.1,1.5,1.5c1.5,0.4,3,0.5,4.5,0.4C168.3,19.5,168.8,19.5,169.5,19.4z M150.5,33.2
		c3,0,6.1,0,9.1,0c1.1,0,1.4-0.2,1.4-1.2c0-0.5,0-9.8,0-10.2c0-1.3-0.2-2-1.7-2c-4.9,0-9.7,0-14.6,0c-1,0-2.1,0-3.1,0
		c-1.3,0-1.6,0.8-1.6,1.9c0,0.5,0,9.9,0,10.4c0,1,0.3,1.2,1.5,1.2C144.5,33.2,147.5,33.2,150.5,33.2z"/>
	<path class="st1" d="M197.9,19.2c0-1.3,0-2.8,0-4.3c0-2.1,0.1-2.2,2.6-2.2c6,0,12.1,0,18.1,0c1.7,0,1.9,0.2,1.9,1.6
		c0,1.3,0,2.6,0,3.9c0,1.1,0.3,1.4,1.6,1.4c1.4,0,2.8,0,4.2,0c1.2,0,1.5,0.3,1.5,1.3c0,9.6,0,23.1,0,32.8c0,1.2-0.6,1.8-2,1.8
		c-1.2,0-2.4,0-3.5,0c-1.2,0-1.8-0.5-2-1.5c-0.1-0.3,0-0.7,0-1.1c0-4.8,0-5.7,0-10.6c0-1.3-0.2-1.4-1.7-1.4c-6.3,0-12.5,0-18.8,0
		c-1.4,0-1.7,0.3-1.7,1.5c0,3.1-1,2.2-0.6,5.4c0.1,0.7,0.3,1.4,0.4,2.1c0,0.2,0.1,0.4,0.1,0.7c0,1.3,0,2.6,0,3.9
		c0,1-0.7,1.5-1.8,1.5c-1.7,0-3.4,0.1-5,0.1c-0.9,0-1.3-0.3-1.3-1.1c0-0.3,0-0.6,0-0.9c0-9.2,0-22.4,0-31.6c0-0.5,0-1-0.1-1.5
		c-0.2-0.7,0.1-1.2,1-1.4c0.7-0.2,1.5-0.4,2.2-0.4C194.6,19.1,196.2,19.2,197.9,19.2z M198,19.8c0,0.5,0.1,0.9,0.1,1.3
		c-0.1,0.4-0.3,0.8-0.4,1.2c0,0.3,0.1,8.4,0.2,8.7c0.1,0.4,0.3,0.9,0.3,1.3c0.1,1.2,0.7,1.5,2.1,1.2c0.8-0.2,1.6-0.3,2.4-0.3
		c5.1,0,10.2,0,15.3,0c0.4,0,0.8,0,1.2-0.1c0.7-0.1,1.2-0.4,1.1-1.1c0-0.8,0-9.4,0-10.2c0-1.4-0.1-1.5-1.8-1.6c-1.2,0-2.5,0-3.7-0.1
		c-1.2-0.1-2.4-0.4-3.6-0.4c-1.5-0.1-3,0.1-4.4-0.4c-0.3-0.1-0.7,0-1,0.1c-0.8,0.1-1.7,0.3-2.5,0.3c-1.5,0.1-2.9,0-4.4,0
		C198.6,19.7,198.3,19.8,198,19.8z"/>
</g>
</svg>
